<?xml version="1.0" encoding="UTF-8" standalone="no"?>
<!-- Created with Inkscape (http://www.inkscape.org/) -->

<svg
   xmlns:dc="http://purl.org/dc/elements/1.1/"
   xmlns:cc="http://creativecommons.org/ns#"
   xmlns:rdf="http://www.w3.org/1999/02/22-rdf-syntax-ns#"
   xmlns:svg="http://www.w3.org/2000/svg"
   xmlns="http://www.w3.org/2000/svg"
   xmlns:sodipodi="http://sodipodi.sourceforge.net/DTD/sodipodi-0.dtd"
   xmlns:inkscape="http://www.inkscape.org/namespaces/inkscape"
   width="256"
   height="256"
   viewBox="0 0 256 256"
   id="svg2"
   version="1.1"
   inkscape:version="0.91 r13725"
   sodipodi:docname="logo-site-accueil.svg"
   inkscape:export-filename="/home/keplyx/Downloads/logo-site-acceuil.png"
   inkscape:export-xdpi="11.25"
   inkscape:export-ydpi="11.25">
  <defs
     id="defs4" />
  <sodipodi:namedview
     id="base"
     pagecolor="#ffffff"
     bordercolor="#666666"
     borderopacity="1.0"
     inkscape:pageopacity="0.0"
     inkscape:pageshadow="2"
     inkscape:zoom="1.4"
     inkscape:cx="99.511853"
     inkscape:cy="134.6611"
     inkscape:document-units="px"
     inkscape:current-layer="layer4"
     showgrid="false"
     units="px"
     inkscape:object-paths="false"
     inkscape:object-nodes="false"
     inkscape:window-width="1600"
     inkscape:window-height="835"
     inkscape:window-x="0"
     inkscape:window-y="0"
     inkscape:window-maximized="1" />
  <metadata
     id="metadata7">
    <rdf:RDF>
      <cc:Work
         rdf:about="">
        <dc:format>image/svg+xml</dc:format>
        <dc:type
           rdf:resource="http://purl.org/dc/dcmitype/StillImage" />
        <dc:title />
      </cc:Work>
    </rdf:RDF>
  </metadata>
  <g
     inkscape:label="Space"
     inkscape:groupmode="layer"
     id="layer1"
     transform="translate(0,-796.36216)"
     style="display:inline">
    <path
       style="opacity:1;fill:#1a5dad;fill-opacity:1;stroke:none;stroke-width:10;stroke-linecap:butt;stroke-linejoin:miter;stroke-miterlimit:4;stroke-dasharray:none;stroke-opacity:1"
       id="path4136"
       sodipodi:type="arc"
       sodipodi:cx="128"
       sodipodi:cy="924.36218"
       sodipodi:rx="128"
       sodipodi:ry="128"
       sodipodi:start="0"
       sodipodi:end="6.2831172"
       d="M 256,924.36218 A 128,128 0 0 1 128.00218,1052.3622 128,128 0 0 1 7.4217411e-8,924.36654 128,128 0 0 1 127.99346,796.36218 128,128 0 0 1 256,924.35346"
       sodipodi:open="true" />
    <path
       style="opacity:1;fill:#f2f2f2;fill-opacity:1;stroke:none;stroke-width:10;stroke-linecap:butt;stroke-linejoin:miter;stroke-miterlimit:4;stroke-dasharray:none;stroke-opacity:1"
       id="path4227-5"
       sodipodi:type="arc"
       sodipodi:cx="180.31223"
       sodipodi:cy="830.1286"
       sodipodi:rx="2.2097089"
       sodipodi:ry="2.0834396"
       sodipodi:start="0"
       sodipodi:end="6.2831155"
       sodipodi:open="true"
       d="m 182.52193,830.1286 a 2.2097089,2.0834396 0 0 1 -2.20967,2.08344 2.2097089,2.0834396 0 0 1 -2.20974,-2.08337 2.2097089,2.0834396 0 0 1 2.20959,-2.08351 2.2097089,2.0834396 0 0 1 2.20982,2.0833" />
    <path
       style="opacity:1;fill:#f2f2f2;fill-opacity:1;stroke:none;stroke-width:10;stroke-linecap:butt;stroke-linejoin:miter;stroke-miterlimit:4;stroke-dasharray:none;stroke-opacity:1"
       id="path4227-2"
       sodipodi:type="arc"
       sodipodi:cx="140.91628"
       sodipodi:cy="1028.1185"
       sodipodi:rx="2.2097089"
       sodipodi:ry="2.0834396"
       sodipodi:start="0"
       sodipodi:end="6.2831155"
       sodipodi:open="true"
       d="m 143.12598,1028.1185 a 2.2097089,2.0834396 0 0 1 -2.20967,2.0835 2.2097089,2.0834396 0 0 1 -2.20974,-2.0834 2.2097089,2.0834396 0 0 1 2.20959,-2.0835 2.2097089,2.0834396 0 0 1 2.20982,2.0833" />
    <path
       style="opacity:1;fill:#f2f2f2;fill-opacity:1;stroke:none;stroke-width:10;stroke-linecap:butt;stroke-linejoin:miter;stroke-miterlimit:4;stroke-dasharray:none;stroke-opacity:1"
       id="path4227-9"
       sodipodi:type="arc"
       sodipodi:cx="31.31473"
       sodipodi:cy="966.87805"
       sodipodi:rx="1.1995564"
       sodipodi:ry="1.1995561"
       sodipodi:start="0"
       sodipodi:end="6.2831155"
       sodipodi:open="true"
       d="m 32.514286,966.87805 a 1.1995564,1.1995561 0 0 1 -1.199535,1.19956 1.1995564,1.1995561 0 0 1 -1.199578,-1.19952 1.1995564,1.1995561 0 0 1 1.199494,-1.19959 1.1995564,1.1995561 0 0 1 1.199619,1.19947" />
    <path
       style="opacity:1;fill:#f2f2f2;fill-opacity:1;stroke:none;stroke-width:10;stroke-linecap:butt;stroke-linejoin:miter;stroke-miterlimit:4;stroke-dasharray:none;stroke-opacity:1"
       id="path4227-1"
       sodipodi:type="arc"
       sodipodi:cx="81.317284"
       sodipodi:cy="999.83423"
       sodipodi:rx="2.2097089"
       sodipodi:ry="2.0834396"
       sodipodi:start="0"
       sodipodi:end="6.2831155"
       sodipodi:open="true"
       d="m 83.526993,999.83423 a 2.2097089,2.0834396 0 0 1 -2.209671,2.08347 2.2097089,2.0834396 0 0 1 -2.209747,-2.0834 2.2097089,2.0834396 0 0 1 2.209593,-2.08351 2.2097089,2.0834396 0 0 1 2.209825,2.08329" />
    <path
       style="opacity:1;fill:#f2f2f2;fill-opacity:1;stroke:none;stroke-width:10;stroke-linecap:butt;stroke-linejoin:miter;stroke-miterlimit:4;stroke-dasharray:none;stroke-opacity:1"
       id="path4227-27"
       sodipodi:type="arc"
       sodipodi:cx="109.62693"
       sodipodi:cy="826.52917"
       sodipodi:rx="4.7097092"
       sodipodi:ry="4.6727252"
       sodipodi:start="0"
       sodipodi:end="6.2831155"
       sodipodi:open="true"
       d="m 114.33664,826.52917 a 4.7097092,4.6727252 0 0 1 -4.70963,4.67273 4.7097092,4.6727252 0 0 1 -4.70979,-4.67256 4.7097092,4.6727252 0 0 1 4.70946,-4.67289 4.7097092,4.6727252 0 0 1 4.70996,4.6724" />
    <path
       style="opacity:1;fill:#f2f2f2;fill-opacity:1;stroke:none;stroke-width:10;stroke-linecap:butt;stroke-linejoin:miter;stroke-miterlimit:4;stroke-dasharray:none;stroke-opacity:1"
       id="path4227-0"
       sodipodi:type="arc"
       sodipodi:cx="227.01909"
       sodipodi:cy="885.80426"
       sodipodi:rx="3.4597089"
       sodipodi:ry="2.9762967"
       sodipodi:start="0"
       sodipodi:end="6.2831155"
       sodipodi:open="true"
       d="m 230.4788,885.80426 a 3.4597089,2.9762967 0 0 1 -3.45965,2.9763 3.4597089,2.9762967 0 0 1 -3.45977,-2.9762 3.4597089,2.9762967 0 0 1 3.45953,-2.9764 3.4597089,2.9762967 0 0 1 3.45989,2.97609" />
    <path
       style="opacity:1;fill:#f2f2f2;fill-opacity:1;stroke:none;stroke-width:10;stroke-linecap:butt;stroke-linejoin:miter;stroke-miterlimit:4;stroke-dasharray:none;stroke-opacity:1"
       id="path4227-93"
       sodipodi:type="arc"
       sodipodi:cx="204.05081"
       sodipodi:cy="996.80377"
       sodipodi:rx="2.2097089"
       sodipodi:ry="2.0834396"
       sodipodi:start="0"
       sodipodi:end="6.2831155"
       sodipodi:open="true"
       d="m 206.26052,996.80377 a 2.2097089,2.0834396 0 0 1 -2.20967,2.08344 2.2097089,2.0834396 0 0 1 -2.20975,-2.08337 2.2097089,2.0834396 0 0 1 2.2096,-2.08351 2.2097089,2.0834396 0 0 1 2.20982,2.0833" />
    <path
       style="opacity:1;fill:#f2f2f2;fill-opacity:1;stroke:none;stroke-width:10;stroke-linecap:butt;stroke-linejoin:miter;stroke-miterlimit:4;stroke-dasharray:none;stroke-opacity:1"
       id="path4227-62"
       sodipodi:type="arc"
       sodipodi:cx="234.86047"
       sodipodi:cy="893.76819"
       sodipodi:rx="2.2097089"
       sodipodi:ry="2.0834396"
       sodipodi:start="0"
       sodipodi:end="6.2831155"
       sodipodi:open="true"
       d="m 237.07018,893.76819 a 2.2097089,2.0834396 0 0 1 -2.20967,2.08344 2.2097089,2.0834396 0 0 1 -2.20975,-2.08337 2.2097089,2.0834396 0 0 1 2.2096,-2.08351 2.2097089,2.0834396 0 0 1 2.20982,2.08329" />
    <path
       style="opacity:1;fill:#f2f2f2;fill-opacity:1;stroke:none;stroke-width:10;stroke-linecap:butt;stroke-linejoin:miter;stroke-miterlimit:4;stroke-dasharray:none;stroke-opacity:1"
       id="path4227-8"
       sodipodi:type="arc"
       sodipodi:cx="166.17009"
       sodipodi:cy="820.0271"
       sodipodi:rx="2.2097089"
       sodipodi:ry="2.0834396"
       sodipodi:start="0"
       sodipodi:end="6.2831155"
       sodipodi:open="true"
       d="m 168.3798,820.0271 a 2.2097089,2.0834396 0 0 1 -2.20967,2.08344 2.2097089,2.0834396 0 0 1 -2.20975,-2.08337 2.2097089,2.0834396 0 0 1 2.20959,-2.08351 2.2097089,2.0834396 0 0 1 2.20983,2.08329" />
    <path
       style="opacity:1;fill:#f2f2f2;fill-opacity:1;stroke:none;stroke-width:10;stroke-linecap:butt;stroke-linejoin:miter;stroke-miterlimit:4;stroke-dasharray:none;stroke-opacity:1"
       id="path4227-7"
       sodipodi:type="arc"
       sodipodi:cx="114.14724"
       sodipodi:cy="809.42047"
       sodipodi:rx="2.2097089"
       sodipodi:ry="2.0834396"
       sodipodi:start="0"
       sodipodi:end="6.2831155"
       sodipodi:open="true"
       d="m 116.35695,809.42047 a 2.2097089,2.0834396 0 0 1 -2.20967,2.08344 2.2097089,2.0834396 0 0 1 -2.20975,-2.08337 2.2097089,2.0834396 0 0 1 2.20959,-2.08351 2.2097089,2.0834396 0 0 1 2.20983,2.0833" />
    <path
       style="opacity:1;fill:#f2f2f2;fill-opacity:1;stroke:none;stroke-width:10;stroke-linecap:butt;stroke-linejoin:miter;stroke-miterlimit:4;stroke-dasharray:none;stroke-opacity:1"
       id="path4227-92"
       sodipodi:type="arc"
       sodipodi:cx="85.806946"
       sodipodi:cy="832.86322"
       sodipodi:rx="1.3168519"
       sodipodi:ry="1.3691539"
       sodipodi:start="0"
       sodipodi:end="6.2831155"
       sodipodi:open="true"
       d="m 87.123798,832.86322 a 1.3168519,1.3691539 0 0 1 -1.316829,1.36915 1.3168519,1.3691539 0 0 1 -1.316875,-1.3691 1.3168519,1.3691539 0 0 1 1.316783,-1.3692 1.3168519,1.3691539 0 0 1 1.316921,1.36905" />
    <path
       style="opacity:1;fill:#f2f2f2;fill-opacity:1;stroke:none;stroke-width:10;stroke-linecap:butt;stroke-linejoin:miter;stroke-miterlimit:4;stroke-dasharray:none;stroke-opacity:1"
       id="path4227-02"
       sodipodi:type="arc"
       sodipodi:cx="56.063465"
       sodipodi:cy="824.06769"
       sodipodi:rx="2.2097089"
       sodipodi:ry="2.0834396"
       sodipodi:start="0"
       sodipodi:end="6.2831155"
       sodipodi:open="true"
       d="m 58.273174,824.06769 a 2.2097089,2.0834396 0 0 1 -2.20967,2.08344 2.2097089,2.0834396 0 0 1 -2.209748,-2.08337 2.2097089,2.0834396 0 0 1 2.209593,-2.08351 2.2097089,2.0834396 0 0 1 2.209825,2.08329" />
    <path
       style="opacity:1;fill:#f2f2f2;fill-opacity:1;stroke:none;stroke-width:10;stroke-linecap:butt;stroke-linejoin:miter;stroke-miterlimit:4;stroke-dasharray:none;stroke-opacity:1"
       id="path4227-75"
       sodipodi:type="arc"
       sodipodi:cx="54.757446"
       sodipodi:cy="886.44592"
       sodipodi:rx="1.4954232"
       sodipodi:ry="1.3245111"
       sodipodi:start="0"
       sodipodi:end="6.2831155"
       sodipodi:open="true"
       d="m 56.252869,886.44592 a 1.4954232,1.3245111 0 0 1 -1.495397,1.32451 1.4954232,1.3245111 0 0 1 -1.495449,-1.32446 1.4954232,1.3245111 0 0 1 1.495345,-1.32456 1.4954232,1.3245111 0 0 1 1.495501,1.32442" />
    <path
       style="opacity:1;fill:#f2f2f2;fill-opacity:1;stroke:none;stroke-width:10;stroke-linecap:butt;stroke-linejoin:miter;stroke-miterlimit:4;stroke-dasharray:none;stroke-opacity:1"
       id="path4227-89"
       sodipodi:type="arc"
       sodipodi:cx="19.697975"
       sodipodi:cy="937.20477"
       sodipodi:rx="2.2097089"
       sodipodi:ry="2.0834396"
       sodipodi:start="0"
       sodipodi:end="6.2831155"
       sodipodi:open="true"
       d="m 21.907684,937.20477 a 2.2097089,2.0834396 0 0 1 -2.20967,2.08344 2.2097089,2.0834396 0 0 1 -2.209748,-2.08336 2.2097089,2.0834396 0 0 1 2.209593,-2.08352 2.2097089,2.0834396 0 0 1 2.209825,2.0833" />
    <path
       style="opacity:1;fill:#f2f2f2;fill-opacity:1;stroke:none;stroke-width:10;stroke-linecap:butt;stroke-linejoin:miter;stroke-miterlimit:4;stroke-dasharray:none;stroke-opacity:1"
       id="path4227-73"
       sodipodi:type="arc"
       sodipodi:cx="62.685478"
       sodipodi:cy="982.07513"
       sodipodi:rx="4.1739945"
       sodipodi:ry="3.6905825"
       sodipodi:start="0"
       sodipodi:end="6.2831155"
       sodipodi:open="true"
       d="m 66.859473,982.07513 a 4.1739945,3.6905825 0 0 1 -4.173922,3.69059 4.1739945,3.6905825 0 0 1 -4.174067,-3.69046 4.1739945,3.6905825 0 0 1 4.173776,-3.69071 4.1739945,3.6905825 0 0 1 4.174213,3.69033" />
    <path
       style="opacity:1;fill:#f2f2f2;fill-opacity:1;stroke:none;stroke-width:10;stroke-linecap:butt;stroke-linejoin:miter;stroke-miterlimit:4;stroke-dasharray:none;stroke-opacity:1"
       id="path4227-612"
       sodipodi:type="arc"
       sodipodi:cx="43.436558"
       sodipodi:cy="1007.4104"
       sodipodi:rx="2.2097089"
       sodipodi:ry="2.0834396"
       sodipodi:start="0"
       sodipodi:end="6.2831155"
       sodipodi:open="true"
       d="m 45.646267,1007.4104 a 2.2097089,2.0834396 0 0 1 -2.209671,2.0834 2.2097089,2.0834396 0 0 1 -2.209747,-2.0833 2.2097089,2.0834396 0 0 1 2.209593,-2.0835 2.2097089,2.0834396 0 0 1 2.209825,2.0833" />
    <path
       style="opacity:1;fill:#f2f2f2;fill-opacity:1;stroke:none;stroke-width:10;stroke-linecap:butt;stroke-linejoin:miter;stroke-miterlimit:4;stroke-dasharray:none;stroke-opacity:1"
       id="path4227-94"
       sodipodi:type="arc"
       sodipodi:cx="221.2234"
       sodipodi:cy="956.90277"
       sodipodi:rx="2.2097089"
       sodipodi:ry="2.0834396"
       sodipodi:start="0"
       sodipodi:end="6.2831155"
       sodipodi:open="true"
       d="m 223.43311,956.90277 a 2.2097089,2.0834396 0 0 1 -2.20967,2.08344 2.2097089,2.0834396 0 0 1 -2.20974,-2.08337 2.2097089,2.0834396 0 0 1 2.20959,-2.08351 2.2097089,2.0834396 0 0 1 2.20982,2.0833" />
    <path
       style="opacity:1;fill:#f2f2f2;fill-opacity:1;stroke:none;stroke-width:10;stroke-linecap:butt;stroke-linejoin:miter;stroke-miterlimit:4;stroke-dasharray:none;stroke-opacity:1"
       id="path4227-78"
       sodipodi:type="arc"
       sodipodi:cx="250.01276"
       sodipodi:cy="929.6286"
       sodipodi:rx="2.2097089"
       sodipodi:ry="2.0834396"
       sodipodi:start="0"
       sodipodi:end="6.2831155"
       sodipodi:open="true"
       d="m 252.22247,929.6286 a 2.2097089,2.0834396 0 0 1 -2.20968,2.08344 2.2097089,2.0834396 0 0 1 -2.20974,-2.08337 2.2097089,2.0834396 0 0 1 2.20959,-2.08351 2.2097089,2.0834396 0 0 1 2.20983,2.0833" />
    <path
       style="opacity:1;fill:#f2f2f2;fill-opacity:1;stroke:none;stroke-width:10;stroke-linecap:butt;stroke-linejoin:miter;stroke-miterlimit:4;stroke-dasharray:none;stroke-opacity:1"
       id="path4227-4"
       sodipodi:type="arc"
       sodipodi:cx="223.24371"
       sodipodi:cy="904.87988"
       sodipodi:rx="2.2097089"
       sodipodi:ry="2.0834396"
       sodipodi:start="0"
       sodipodi:end="6.2831155"
       sodipodi:open="true"
       d="m 225.45342,904.87988 a 2.2097089,2.0834396 0 0 1 -2.20967,2.08344 2.2097089,2.0834396 0 0 1 -2.20975,-2.08336 2.2097089,2.0834396 0 0 1 2.2096,-2.08352 2.2097089,2.0834396 0 0 1 2.20982,2.0833" />
    <path
       style="opacity:1;fill:#f2f2f2;fill-opacity:1;stroke:none;stroke-width:10;stroke-linecap:butt;stroke-linejoin:miter;stroke-miterlimit:4;stroke-dasharray:none;stroke-opacity:1"
       id="path4227-50"
       sodipodi:type="arc"
       sodipodi:cx="191.4239"
       sodipodi:cy="969.52966"
       sodipodi:rx="2.2097089"
       sodipodi:ry="2.0834396"
       sodipodi:start="0"
       sodipodi:end="6.2831155"
       sodipodi:open="true"
       d="m 193.63361,969.52966 a 2.2097089,2.0834396 0 0 1 -2.20967,2.08344 2.2097089,2.0834396 0 0 1 -2.20974,-2.08336 2.2097089,2.0834396 0 0 1 2.20959,-2.08352 2.2097089,2.0834396 0 0 1 2.20982,2.0833" />
    <path
       style="opacity:1;fill:#f2f2f2;fill-opacity:1;stroke:none;stroke-width:10;stroke-linecap:butt;stroke-linejoin:miter;stroke-miterlimit:4;stroke-dasharray:none;stroke-opacity:1"
       id="path4227-36"
       sodipodi:type="arc"
       sodipodi:cx="146.47212"
       sodipodi:cy="1006.9053"
       sodipodi:rx="2.2097089"
       sodipodi:ry="2.0834396"
       sodipodi:start="0"
       sodipodi:end="6.2831155"
       sodipodi:open="true"
       d="m 148.68183,1006.9053 a 2.2097089,2.0834396 0 0 1 -2.20967,2.0834 2.2097089,2.0834396 0 0 1 -2.20975,-2.0834 2.2097089,2.0834396 0 0 1 2.2096,-2.0835 2.2097089,2.0834396 0 0 1 2.20982,2.0833" />
    <path
       style="opacity:1;fill:#f2f2f2;fill-opacity:1;stroke:none;stroke-width:10;stroke-linecap:butt;stroke-linejoin:miter;stroke-miterlimit:4;stroke-dasharray:none;stroke-opacity:1"
       id="path4227-10"
       sodipodi:type="arc"
       sodipodi:cx="110.92738"
       sodipodi:cy="1022.3101"
       sodipodi:rx="1.38896"
       sodipodi:ry="1.3258252"
       sodipodi:start="0"
       sodipodi:end="6.2831155"
       sodipodi:open="true"
       d="m 112.31634,1022.3101 a 1.38896,1.3258252 0 0 1 -1.38893,1.3258 1.38896,1.3258252 0 0 1 -1.38899,-1.3257 1.38896,1.3258252 0 0 1 1.38889,-1.3259 1.38896,1.3258252 0 0 1 1.38903,1.3257" />
    <path
       style="opacity:1;fill:#f2f2f2;fill-opacity:1;stroke:none;stroke-width:10;stroke-linecap:butt;stroke-linejoin:miter;stroke-miterlimit:4;stroke-dasharray:none;stroke-opacity:1"
       id="path4227-20"
       sodipodi:type="arc"
       sodipodi:cx="170.21071"
       sodipodi:cy="845.78595"
       sodipodi:rx="2.2097089"
       sodipodi:ry="2.0834396"
       sodipodi:start="0"
       sodipodi:end="6.2831155"
       sodipodi:open="true"
       d="m 172.42042,845.78595 a 2.2097089,2.0834396 0 0 1 -2.20967,2.08344 2.2097089,2.0834396 0 0 1 -2.20975,-2.08337 2.2097089,2.0834396 0 0 1 2.20959,-2.08351 2.2097089,2.0834396 0 0 1 2.20983,2.08329" />
    <path
       style="opacity:1;fill:#f2f2f2;fill-opacity:1;stroke:none;stroke-width:10;stroke-linecap:butt;stroke-linejoin:miter;stroke-miterlimit:4;stroke-dasharray:none;stroke-opacity:1"
       id="path4227-615"
       sodipodi:type="arc"
       sodipodi:cx="141.92644"
       sodipodi:cy="810.93573"
       sodipodi:rx="2.2097089"
       sodipodi:ry="2.0834396"
       sodipodi:start="0"
       sodipodi:end="6.2831155"
       sodipodi:open="true"
       d="m 144.13615,810.93573 a 2.2097089,2.0834396 0 0 1 -2.20967,2.08344 2.2097089,2.0834396 0 0 1 -2.20975,-2.08337 2.2097089,2.0834396 0 0 1 2.20959,-2.08351 2.2097089,2.0834396 0 0 1 2.20983,2.08329" />
    <path
       style="opacity:1;fill:#f2f2f2;fill-opacity:1;stroke:none;stroke-width:10;stroke-linecap:butt;stroke-linejoin:miter;stroke-miterlimit:4;stroke-dasharray:none;stroke-opacity:1"
       id="path4227-54"
       sodipodi:type="arc"
       sodipodi:cx="143.44167"
       sodipodi:cy="828.61334"
       sodipodi:rx="2.2097089"
       sodipodi:ry="2.0834396"
       sodipodi:start="0"
       sodipodi:end="6.2831155"
       sodipodi:open="true"
       d="m 145.65137,828.61334 a 2.2097089,2.0834396 0 0 1 -2.20967,2.08344 2.2097089,2.0834396 0 0 1 -2.20974,-2.08336 2.2097089,2.0834396 0 0 1 2.20959,-2.08352 2.2097089,2.0834396 0 0 1 2.20982,2.0833" />
    <path
       style="display:inline;opacity:1;fill:#f2f2f2;fill-opacity:1;stroke:none;stroke-width:10;stroke-linecap:butt;stroke-linejoin:miter;stroke-miterlimit:4;stroke-dasharray:none;stroke-opacity:1"
       id="path4227-27-7"
       sodipodi:type="arc"
       sodipodi:cx="159.28572"
       sodipodi:cy="867.005"
       sodipodi:rx="4.7097092"
       sodipodi:ry="4.6727252"
       sodipodi:start="0"
       sodipodi:end="6.2831155"
       sodipodi:open="true"
       d="m 163.99543,867.005 a 4.7097092,4.6727252 0 0 1 -4.70963,4.67273 4.7097092,4.6727252 0 0 1 -4.70979,-4.67256 4.7097092,4.6727252 0 0 1 4.70946,-4.67289 4.7097092,4.6727252 0 0 1 4.70996,4.6724" />
    <path
       style="display:inline;opacity:1;fill:#f2f2f2;fill-opacity:1;stroke:none;stroke-width:10;stroke-linecap:butt;stroke-linejoin:miter;stroke-miterlimit:4;stroke-dasharray:none;stroke-opacity:1"
       id="path4227-50-3"
       sodipodi:type="arc"
       sodipodi:cx="76.071426"
       sodipodi:cy="869.505"
       sodipodi:rx="2.2097089"
       sodipodi:ry="2.0834396"
       sodipodi:start="0"
       sodipodi:end="6.2831155"
       sodipodi:open="true"
       d="m 78.281135,869.505 a 2.2097089,2.0834396 0 0 1 -2.20967,2.08344 2.2097089,2.0834396 0 0 1 -2.209748,-2.08336 2.2097089,2.0834396 0 0 1 2.209594,-2.08351 2.2097089,2.0834396 0 0 1 2.209824,2.08329" />
    <path
       style="display:inline;opacity:1;fill:#f2f2f2;fill-opacity:1;stroke:none;stroke-width:10;stroke-linecap:butt;stroke-linejoin:miter;stroke-miterlimit:4;stroke-dasharray:none;stroke-opacity:1"
       id="path4227-50-38"
       sodipodi:type="arc"
       sodipodi:cx="131.07143"
       sodipodi:cy="846.29071"
       sodipodi:rx="2.2097089"
       sodipodi:ry="2.0834396"
       sodipodi:start="0"
       sodipodi:end="6.2831155"
       sodipodi:open="true"
       d="m 133.28114,846.29071 a 2.2097089,2.0834396 0 0 1 -2.20968,2.08344 2.2097089,2.0834396 0 0 1 -2.20974,-2.08337 2.2097089,2.0834396 0 0 1 2.20959,-2.08351 2.2097089,2.0834396 0 0 1 2.20983,2.0833" />
    <path
       style="display:inline;opacity:1;fill:#f2f2f2;fill-opacity:1;stroke:none;stroke-width:10;stroke-linecap:butt;stroke-linejoin:miter;stroke-miterlimit:4;stroke-dasharray:none;stroke-opacity:1"
       id="path4227-50-37"
       sodipodi:type="arc"
       sodipodi:cx="117.14286"
       sodipodi:cy="879.14789"
       sodipodi:rx="2.2097089"
       sodipodi:ry="2.0834396"
       sodipodi:start="0"
       sodipodi:end="6.2831155"
       sodipodi:open="true"
       d="m 119.35257,879.14789 a 2.2097089,2.0834396 0 0 1 -2.20967,2.08344 2.2097089,2.0834396 0 0 1 -2.20975,-2.08337 2.2097089,2.0834396 0 0 1 2.20959,-2.08351 2.2097089,2.0834396 0 0 1 2.20983,2.08329" />
    <path
       style="display:inline;opacity:1;fill:#f2f2f2;fill-opacity:1;stroke:none;stroke-width:10;stroke-linecap:butt;stroke-linejoin:miter;stroke-miterlimit:4;stroke-dasharray:none;stroke-opacity:1"
       id="path4227-75-4"
       sodipodi:type="arc"
       sodipodi:cx="121.42857"
       sodipodi:cy="862.36218"
       sodipodi:rx="1.4954232"
       sodipodi:ry="1.3245111"
       sodipodi:start="0"
       sodipodi:end="6.2831155"
       sodipodi:open="true"
       d="m 122.924,862.36218 a 1.4954232,1.3245111 0 0 1 -1.4954,1.32451 1.4954232,1.3245111 0 0 1 -1.49545,-1.32446 1.4954232,1.3245111 0 0 1 1.49535,-1.32456 1.4954232,1.3245111 0 0 1 1.4955,1.32442" />
    <path
       style="display:inline;opacity:1;fill:#f2f2f2;fill-opacity:1;stroke:none;stroke-width:10;stroke-linecap:butt;stroke-linejoin:miter;stroke-miterlimit:4;stroke-dasharray:none;stroke-opacity:1"
       id="path4227-75-9"
       sodipodi:type="arc"
       sodipodi:cx="203.57143"
       sodipodi:cy="964.14789"
       sodipodi:rx="1.4954232"
       sodipodi:ry="1.3245111"
       sodipodi:start="0"
       sodipodi:end="6.2831155"
       sodipodi:open="true"
       d="m 205.06685,964.14789 a 1.4954232,1.3245111 0 0 1 -1.4954,1.32451 1.4954232,1.3245111 0 0 1 -1.49545,-1.32447 1.4954232,1.3245111 0 0 1 1.49535,-1.32455 1.4954232,1.3245111 0 0 1 1.4955,1.32442" />
    <path
       style="display:inline;opacity:1;fill:#f2f2f2;fill-opacity:1;stroke:none;stroke-width:10;stroke-linecap:butt;stroke-linejoin:miter;stroke-miterlimit:4;stroke-dasharray:none;stroke-opacity:1"
       id="path4227-75-0"
       sodipodi:type="arc"
       sodipodi:cx="137.5"
       sodipodi:cy="988.43359"
       sodipodi:rx="1.4954232"
       sodipodi:ry="1.3245111"
       sodipodi:start="0"
       sodipodi:end="6.2831155"
       sodipodi:open="true"
       d="m 138.99542,988.43359 a 1.4954232,1.3245111 0 0 1 -1.49539,1.32451 1.4954232,1.3245111 0 0 1 -1.49545,-1.32446 1.4954232,1.3245111 0 0 1 1.49534,-1.32456 1.4954232,1.3245111 0 0 1 1.4955,1.32442" />
    <path
       style="display:inline;opacity:1;fill:#f2f2f2;fill-opacity:1;stroke:none;stroke-width:10;stroke-linecap:butt;stroke-linejoin:miter;stroke-miterlimit:4;stroke-dasharray:none;stroke-opacity:1"
       id="path4227-75-98"
       sodipodi:type="arc"
       sodipodi:cx="100"
       sodipodi:cy="976.29071"
       sodipodi:rx="1.4954232"
       sodipodi:ry="1.3245111"
       sodipodi:start="0"
       sodipodi:end="6.2831155"
       sodipodi:open="true"
       d="m 101.49542,976.29071 a 1.4954232,1.3245111 0 0 1 -1.49539,1.32451 1.4954232,1.3245111 0 0 1 -1.495453,-1.32446 1.4954232,1.3245111 0 0 1 1.495345,-1.32456 1.4954232,1.3245111 0 0 1 1.495498,1.32442" />
    <path
       style="display:inline;opacity:1;fill:#f2f2f2;fill-opacity:1;stroke:none;stroke-width:10;stroke-linecap:butt;stroke-linejoin:miter;stroke-miterlimit:4;stroke-dasharray:none;stroke-opacity:1"
       id="path4227-75-8"
       sodipodi:type="arc"
       sodipodi:cx="95.35714"
       sodipodi:cy="875.93359"
       sodipodi:rx="1.4954232"
       sodipodi:ry="1.3245111"
       sodipodi:start="0"
       sodipodi:end="6.2831155"
       sodipodi:open="true"
       d="m 96.852563,875.93359 a 1.4954232,1.3245111 0 0 1 -1.495397,1.32451 1.4954232,1.3245111 0 0 1 -1.49545,-1.32446 1.4954232,1.3245111 0 0 1 1.495345,-1.32456 1.4954232,1.3245111 0 0 1 1.495502,1.32442" />
  </g>
  <g
     inkscape:groupmode="layer"
     id="layer4"
     inkscape:label="Text"
     style="display:inline">
    <g
       style="font-style:normal;font-weight:normal;font-size:50px;line-height:125%;font-family:sans-serif;letter-spacing:0px;word-spacing:0px;fill:#ffffff;fill-opacity:1;stroke:none;stroke-width:1px;stroke-linecap:butt;stroke-linejoin:miter;stroke-opacity:1"
       id="text4175">
      <path
         d="m 25.065313,158.24001 26.91,0 0,-4.41 -6.03,-0.45 -1.44,-1.44 0,-47.97 1.44,-1.26 6.03,-0.45 0,-4.410005 -26.91,0 0,4.410005 5.94,0.45 1.44,1.26 0,47.97 -1.44,1.44 -5.94,0.45 0,4.41 z"
         style="font-style:normal;font-variant:normal;font-weight:bold;font-stretch:normal;font-size:90px;font-family:'Bitstream Charter';-inkscape-font-specification:'Bitstream Charter Bold';fill:#ffffff;fill-opacity:1"
         id="path4182" />
      <path
         d="m 56.521719,158.24001 20.52,0 0,-4.32 -5.58,-0.72 -1.44,-1.62 0,-41.67 31.140001,48.33 10.08,0 0,-53.73 1.53,-1.71 5.31,-0.72 0,-4.230005 -20.520001,0 0,4.230005 5.490001,0.72 1.62,1.71 0,38.52 -27.540001,-42.75 0,-2.430005 -20.7,0 0,4.410005 5.76,0.45 1.26,1.26 0,47.61 -1.62,1.62 -5.31,0.72 0,4.32 z"
         style="font-style:normal;font-variant:normal;font-weight:bold;font-stretch:normal;font-size:90px;font-family:'Bitstream Charter';-inkscape-font-specification:'Bitstream Charter Bold';fill:#ffffff;fill-opacity:1"
         id="path4184" />
      <path
         d="m 124.88234,156.26001 c 5.58,1.98 11.61,2.97 17.37,2.97 14.76,0 23.85,-7.74 23.85,-18.45 0,-5.31 -2.88,-10.17 -8.1,-13.5 -5.31,-3.42 -10.08,-4.77 -12.87,-6.48 -4.77,-2.88 -7.29,-5.58 -7.29,-9.72 0,-4.95 4.05,-8.55 10.62,-8.55 2.88,0 4.95,0.45 6.57,1.26 l 1.26,1.26 1.53,9.36 6.48,0 0,-14.580005 c -5.67,-1.98 -11.34,-3.06 -16.92,-3.06 -12.87,0 -21.24,7.740005 -21.24,17.730005 0,4.41 2.16,8.82 6.3,12.33 3.96,3.33 8.19,4.86 11.79,6.66 6.39,3.24 9.63,6.48 9.63,11.34 0,4.95 -4.32,8.55 -11.61,8.55 -2.79,0 -5.4,-0.45 -7.92,-1.26 l -1.17,-1.35 -1.44,-10.8 -6.84,0 0,16.29 z"
         style="font-style:normal;font-variant:normal;font-weight:bold;font-stretch:normal;font-size:90px;font-family:'Bitstream Charter';-inkscape-font-specification:'Bitstream Charter Bold';fill:#ffffff;fill-opacity:1"
         id="path4186" />
      <path
         d="m 195.47469,97.220005 -20.34,55.800005 -5.4,0.81 0,4.41 19.35,0 0,-4.41 -5.67,-0.63 -0.9,-1.17 5.4,-15.21 19.62,0 5.4,15.3 -0.63,1.17 -5.67,0.54 0,4.41 24.3,0 0,-4.41 -5.31,-0.9 -20.7,-55.710005 -9.45,0 z m 1.98,12.330005 8.01,22.23 -15.84,0 7.83,-22.23 z"
         style="font-style:normal;font-variant:normal;font-weight:bold;font-stretch:normal;font-size:90px;font-family:'Bitstream Charter';-inkscape-font-specification:'Bitstream Charter Bold';fill:#ffffff;fill-opacity:1"
         id="path4188" />
    </g>
  </g>
  <g
     inkscape:groupmode="layer"
     id="layer3"
     inkscape:label="Arrow"
     style="display:inline">
    <path
       transform="translate(0,-796.36216)"
       style="display:inline;fill:#ee293d;fill-opacity:1;fill-rule:evenodd;stroke:none;stroke-width:1px;stroke-linecap:butt;stroke-linejoin:miter;stroke-opacity:1"
       d="m 56.256042,955.37352 c -1.788821,1.72421 -6.479393,5.71015 -8.319307,7.30206 -5.728828,4.95664 -8.633783,7.69767 -4.752714,9.75827 2.659233,0.87145 9.333609,-0.54674 18.283086,-2.7909 24.574431,-6.16224 55.665463,-19.67511 74.978983,-30.34391 28.63169,-16.96002 26.40944,-16.81685 50.33035,-38.90049 6.15304,-8.33938 7.19968,-11.75273 4.47997,-15.08021 -1.85686,-2.27181 -12.48373,-0.71207 -17.79249,0.54824 -3.96667,0.94169 -12.94896,4.31889 -15.24258,4.24354 2.94511,-1.56322 6.23872,-3.82429 13.256,-6.0794 6.38188,-1.61881 18.89802,-4.61707 22.50377,-0.82506 3.76842,3.96309 4.29147,8.20736 -1.17178,16.05756 -20.76234,20.82694 -18.11365,22.9806 -54.07923,44.22174 -27.17477,14.51591 -48.940102,22.86785 -76.030392,30.51488 -10.135364,1.77776 -21.920892,5.06128 -26.365944,-0.91933 -0.09011,-5.50888 1.546606,-7.94692 8.967672,-12.64518 5.7232,-3.62335 8.105111,-3.97946 10.954606,-5.06181 z"
       id="path4436"
       inkscape:connector-curvature="0"
       sodipodi:nodetypes="cscsccssccsccccsc" />
  </g>
</svg>
